<svg width="20" height="20" viewBox="0 0 20 20" fill="none" xmlns="http://www.w3.org/2000/svg">
<path d="M15.5748 4.43434C15.4095 4.26865 15.1851 4.17554 14.951 4.17554C14.717 4.17554 14.4925 4.26865 14.3272 4.43434L10.0003 8.75238L5.67344 4.42549C5.50812 4.2598 5.28368 4.16669 5.04962 4.16669C4.81557 4.16669 4.59113 4.2598 4.42581 4.42549C4.08072 4.77058 4.08072 5.32803 4.42581 5.67312L8.7527 10L4.42581 14.3269C4.08072 14.672 4.08072 15.2294 4.42581 15.5745C4.7709 15.9196 5.32835 15.9196 5.67344 15.5745L10.0003 11.2476L14.3272 15.5745C14.6723 15.9196 15.2298 15.9196 15.5748 15.5745C15.9199 15.2294 15.9199 14.672 15.5748 14.3269L11.248 10L15.5748 5.67312C15.9111 5.33688 15.9111 4.77058 15.5748 4.43434Z" fill="#8A91A4"/>
</svg>
